<svg width="265" height="73" viewBox="0 0 265 73" fill="none" xmlns="http://www.w3.org/2000/svg">
<path d="M180.572 43.137C182.303 43.4886 183.683 44.3137 184.711 45.6121C185.766 46.8835 186.293 48.3848 186.293 50.1161C186.293 52.5236 185.482 54.4307 183.859 55.8373C182.263 57.2169 179.936 57.9067 176.88 57.9067H164.585V29.2599H176.636C179.531 29.2599 181.749 29.8956 183.291 31.167C184.86 32.4384 185.644 34.2237 185.644 36.523C185.644 38.3084 185.171 39.7691 184.224 40.9053C183.304 42.0414 182.087 42.7853 180.572 43.137ZM170.306 41.2705H175.459C176.893 41.2705 177.975 40.9594 178.706 40.3372C179.463 39.688 179.842 38.7683 179.842 37.578C179.842 36.3878 179.476 35.4681 178.746 34.8188C178.016 34.1696 176.893 33.845 175.378 33.845H170.306V41.2705ZM175.743 53.2405C177.258 53.2405 178.421 52.9159 179.233 52.2666C180.045 51.5904 180.45 50.6165 180.45 49.3451C180.45 48.0738 180.031 47.0999 179.192 46.4237C178.381 45.7203 177.218 45.3687 175.703 45.3687H170.306V53.2405H175.743ZM199.107 35.1434C201 35.1434 202.623 35.5898 203.976 36.4825C205.329 37.3751 206.289 38.5789 206.857 40.0938V35.4275H212.538V57.9067H206.857V53.1999C206.289 54.7147 205.329 55.932 203.976 56.8518C202.623 57.7444 201 58.1908 199.107 58.1908C197.213 58.1908 195.509 57.7309 193.994 56.8112C192.479 55.8915 191.289 54.566 190.423 52.8347C189.585 51.0764 189.166 49.0205 189.166 46.6671C189.166 44.3137 189.585 42.2713 190.423 40.5401C191.289 38.7818 192.479 37.4428 193.994 36.523C195.509 35.6033 197.213 35.1434 199.107 35.1434ZM200.892 40.1343C199.107 40.1343 197.673 40.7159 196.591 41.8791C195.509 43.0423 194.968 44.6383 194.968 46.6671C194.968 48.6959 195.509 50.2919 196.591 51.4551C197.673 52.5912 199.107 53.1593 200.892 53.1593C202.623 53.1593 204.044 52.5777 205.153 51.4145C206.289 50.2243 206.857 48.6418 206.857 46.6671C206.857 44.6653 206.289 43.0829 205.153 41.9197C204.044 40.7294 202.623 40.1343 200.892 40.1343ZM231.113 35.1029C233.709 35.1029 235.779 35.955 237.321 37.6592C238.863 39.3634 239.634 41.7574 239.634 44.8412V57.9067H233.953V45.4904C233.953 43.705 233.493 42.3254 232.573 41.3516C231.654 40.3507 230.396 39.8503 228.8 39.8503C227.177 39.8503 225.878 40.3778 224.904 41.4328C223.931 42.4878 223.444 44.0026 223.444 45.9773V57.9067H217.722V35.4275H223.444V39.9314C224.039 38.4166 225.013 37.2399 226.365 36.4013C227.745 35.5357 229.327 35.1029 231.113 35.1029ZM257.814 57.9067L250.389 48.0873V57.9067H244.668V27.8803H250.389V44.76L257.774 35.4275H264.55L255.096 46.6265L264.793 57.9067H257.814Z" fill="#5CE1E6"/>
<path d="M36.0678 0C28.9343 -8.50666e-08 21.9609 2.11534 16.0296 6.07852C10.0983 10.0417 5.47541 15.6747 2.74552 22.2652C0.0156288 28.8558 -0.698635 36.1078 0.693047 43.1043C2.08473 50.1007 5.51986 56.5274 10.564 61.5716C15.6082 66.6157 22.0348 70.0509 29.0313 71.4426C36.0278 72.8342 43.2798 72.12 49.8703 69.3901C56.4609 66.6602 62.0939 62.0373 66.0571 56.106C70.0202 50.1747 72.1356 43.2013 72.1356 36.0678H54.1017C54.1017 39.6346 53.044 43.1212 51.0624 46.0869C49.0808 49.0526 46.2643 51.364 42.9691 52.7289C39.6738 54.0939 36.0478 54.451 32.5496 53.7552C29.0513 53.0593 25.838 51.3418 23.3159 48.8197C20.7938 46.2976 19.0763 43.0843 18.3804 39.586C17.6846 36.0878 18.0417 32.4618 19.4066 29.1665C20.7716 25.8713 23.083 23.0547 26.0487 21.0732C29.0144 19.0916 32.501 18.0339 36.0678 18.0339V0Z" fill="white"/>
<path d="M36.0678 0C31.3313 -5.64821e-08 26.6412 0.932921 22.2652 2.7455C17.8893 4.55807 13.9132 7.21481 10.564 10.564C7.21481 13.9132 4.55807 17.8893 2.7455 22.2653C0.93292 26.6412 -7.1519e-07 31.3313 0 36.0678H18.0339C18.0339 33.6996 18.5004 31.3545 19.4066 29.1665C20.3129 26.9785 21.6413 24.9905 23.3159 23.3159C24.9905 21.6413 26.9785 20.3129 29.1665 19.4066C31.3545 18.5004 33.6995 18.0339 36.0678 18.0339V0Z" fill="#5CE1E6"/>
<path d="M36.0678 47.339C42.2927 47.339 47.339 42.2927 47.339 36.0678C47.339 29.8429 42.2927 24.7966 36.0678 24.7966C29.8429 24.7966 24.7966 29.8429 24.7966 36.0678C24.7966 42.2927 29.8429 47.339 36.0678 47.339Z" fill="#5CE1E6"/>
<path d="M47.339 36.0678C47.339 34.5877 47.0475 33.122 46.481 31.7545C45.9146 30.387 45.0844 29.1445 44.0377 28.0979C42.9911 27.0513 41.7486 26.221 40.3811 25.6546C39.0136 25.0882 37.548 24.7966 36.0678 24.7966C34.5876 24.7966 33.122 25.0882 31.7545 25.6546C30.387 26.221 29.1445 27.0513 28.0979 28.0979C27.0512 29.1445 26.221 30.387 25.6546 31.7545C25.0882 33.122 24.7966 34.5877 24.7966 36.0678H36.0678H47.339Z" fill="white"/>
<path d="M110.6 58H103.76L92.32 40.68V58H85.48V29.92H92.32L103.76 47.32V29.92H110.6V58ZM136.598 46.48C136.598 47.12 136.558 47.7867 136.478 48.48H120.998C121.105 49.8667 121.545 50.9333 122.318 51.68C123.118 52.4 124.091 52.76 125.238 52.76C126.945 52.76 128.131 52.04 128.798 50.6H136.078C135.705 52.0667 135.025 53.3867 134.038 54.56C133.078 55.7333 131.865 56.6533 130.398 57.32C128.931 57.9867 127.291 58.32 125.478 58.32C123.291 58.32 121.345 57.8533 119.638 56.92C117.931 55.9867 116.598 54.6533 115.638 52.92C114.678 51.1867 114.198 49.16 114.198 46.84C114.198 44.52 114.665 42.4933 115.598 40.76C116.558 39.0267 117.891 37.6933 119.598 36.76C121.305 35.8267 123.265 35.36 125.478 35.36C127.638 35.36 129.558 35.8133 131.238 36.72C132.918 37.6267 134.225 38.92 135.158 40.6C136.118 42.28 136.598 44.24 136.598 46.48ZM129.598 44.68C129.598 43.5067 129.198 42.5733 128.398 41.88C127.598 41.1867 126.598 40.84 125.398 40.84C124.251 40.84 123.278 41.1733 122.478 41.84C121.705 42.5067 121.225 43.4533 121.038 44.68H129.598ZM153.407 58L149.127 51.8L145.527 58H138.127L145.487 46.6L137.927 35.68H145.607L149.887 41.84L153.487 35.68H160.887L153.407 46.92L161.087 58H153.407Z" fill="white"/>
</svg>
